sh_-0.1_80rpm
version=1
nRows=14
nColumns=49
inDegrees=yes
endheader
time	/jointset/bb/crank_angle/value	/jointset/bb/crank_angle/speed	/jointset/spindle/pedal_angle_r/value	/jointset/spindle/pedal_angle_r/speed	/jointset/ground_pelvis/pelvis_tilt/value	/jointset/ground_pelvis/pelvis_tilt/speed	/jointset/ground_pelvis/pelvis_list/value	/jointset/ground_pelvis/pelvis_list/speed	/jointset/ground_pelvis/pelvis_rotation/value	/jointset/ground_pelvis/pelvis_rotation/speed	/jointset/ground_pelvis/pelvis_tx/value	/jointset/ground_pelvis/pelvis_tx/speed	/jointset/ground_pelvis/pelvis_ty/value	/jointset/ground_pelvis/pelvis_ty/speed	/jointset/ground_pelvis/pelvis_tz/value	/jointset/ground_pelvis/pelvis_tz/speed	/jointset/hip_r/hip_angle_r/value	/jointset/hip_r/hip_angle_r/speed	/jointset/hip_r/hip_adduction_r/value	/jointset/hip_r/hip_adduction_r/speed	/jointset/hip_r/hip_rotation_r/value	/jointset/hip_r/hip_rotation_r/speed	/jointset/knee_r/knee_angle_r/value	/jointset/knee_r/knee_angle_r/speed	/jointset/knee_r/tib_tx_r/value	/jointset/knee_r/tib_tx_r/speed	/jointset/knee_r/tib_ty_r/value	/jointset/knee_r/tib_ty_r/speed	/jointset/tib_pat_r/pat_angle_r/value	/jointset/tib_pat_r/pat_angle_r/speed	/jointset/tib_pat_r/pat_tx_r/value	/jointset/tib_pat_r/pat_tx_r/speed	/jointset/tib_pat_r/pat_ty_r/value	/jointset/tib_pat_r/pat_ty_r/speed	/jointset/ankle_r/ankle_angle_r/value	/jointset/ankle_r/ankle_angle_r/speed	/jointset/subtalar_r/subtalar_angle_r/value	/jointset/subtalar_r/subtalar_angle_r/speed	/jointset/mtp_r/mtp_angle_r/value	/jointset/mtp_r/mtp_angle_r/speed	/forceset/bifemlh_r/activation	/forceset/bifemlh_r/fiber_length	/forceset/bifemsh_r/activation	/forceset/bifemsh_r/fiber_length	/forceset/glut_max2_r/activation	/forceset/glut_max2_r/fiber_length	/forceset/vas_int_r/activation	/forceset/vas_int_r/fiber_length
      2.33159493	  -1119.16556660	   -480.00000000	   1121.53021182	    568.33268272	      0.00000000	     -0.00000000	     -0.00000000	      0.00000000	      0.00000000	     -0.00000000	     -0.10000000	     -0.00000000	     -0.10000000	      0.00000000	      0.00000000	     -0.00000000	     87.00719172	    -79.26615486	      4.13077029	      2.17767381	     -3.28883309	     21.32665212	   -110.18309951	    224.14071483	     -0.00046221	      0.06579809	     -0.49285366	      0.07466926	     17.64234738	     -0.55231450	      0.02423617	      0.10429999	     -0.02383825	      0.01633351	     26.18755076	    -58.34552809	     -0.00000000	     -0.00000000	      0.00000000	      0.00000000	      0.05000000	      0.10000000	      0.05000000	      0.10000000	      0.05000000	      0.10000000	      0.05000000	      0.10000000
      2.37507292	  -1140.03500077	   -480.00000000	   1145.79113382	    548.52906246	      0.00000000	     -0.00000000	     -0.00000000	      0.00000000	     -0.00000000	     -0.00000000	     -0.10000000	     -0.00000000	     -0.10000000	      0.00000000	      0.00000000	     -0.00000000	     82.14273273	   -140.57958759	      4.22429168	      2.03481631	     -2.36108976	     21.08278928	    -99.78497857	    250.24074755	      0.00214621	      0.05231247	     -0.48932386	      0.08616500	     17.60559069	     -1.04222284	      0.02883625	      0.10517072	     -0.02316034	      0.01418258	     23.97181342	    -42.68436979	      0.00000000	     -0.00000000	     -0.00000000	      0.00000000	      0.05000000	      0.10000000	      0.05000000	      0.10000000	      0.05000000	      0.10000000	      0.05000000	      0.10000000
      2.40648152	  -1155.11112729	   -480.00000000	   1162.82790792	    536.45994362	      0.00000000	      0.00000000	     -0.00000000	     -0.00000000	     -0.00000000	     -0.00000000	     -0.10000000	     -0.00000000	     -0.10000000	     -0.00000000	      0.00000000	      0.00000000	     77.23353278	   -169.91710563	      4.28289653	      1.67243680	     -1.71182899	     20.19116320	    -91.82257620	    254.80407101	      0.00356673	      0.03781832	     -0.48656835	      0.08840345	     17.57323819	     -0.94514224	      0.03205669	      0.09914757	     -0.02277011	      0.01040948	     22.83433561	    -29.73055725	     -0.00000000	     -0.00000000	     -0.00000000	     -0.00000000	      0.05000000	      0.10000000	      0.05000000	      0.10000000	      0.05000000	      0.10000000	      0.05000000	      0.10000000
      2.43789011	  -1170.18725380	   -480.00000000	   1179.48782164	    524.14578647	      0.00000000	     -0.00000000	     -0.00000000	      0.00000000	     -0.00000000	     -0.00000000	     -0.10000000	     -0.00000000	     -0.10000000	      0.00000000	      0.00000000	     -0.00000000	     71.60095615	   -186.63379287	      4.32835149	      1.21390320	     -1.09671476	     18.90642635	    -83.90694789	    247.06501164	      0.00451612	      0.02275795	     -0.48382867	      0.08509707	     17.55066596	     -0.43112411	      0.03502362	      0.08919030	     -0.02252488	      0.00485559	     22.09826997	    -17.32417726	     -0.00000000	      0.00000000	     -0.00000000	      0.00000000	      0.05000000	      0.10000000	      0.05000000	      0.10000000	      0.05000000	      0.10000000	      0.05000000	      0.10000000
      2.50005216	  -1200.02503755	   -480.00000000	   1211.05771106	    487.06553481	     -0.00000000	      0.00000000	      0.00000000	     -0.00000000	      0.00000000	      0.00000000	     -0.10000000	      0.00000000	     -0.10000000	      0.00000000	     -0.00000000	      0.00000000	     59.91593575	   -179.86037546	      4.37594461	      0.36491784	     -0.04565443	     14.21966352	    -70.09403468	    185.31849178	      0.00515067	      0.00001565	     -0.47916783	      0.06075164	     17.52064638	     -1.05892576	      0.03971087	      0.05921022	     -0.02259255	     -0.00474673	     21.65415811	      1.08539377	     -0.00000000	      0.00000000	     -0.00000000	     -0.00000000	      0.05000000	      0.10000000	      0.05000000	      0.10000000	      0.05000000	      0.10000000	      0.05000000	      0.10000000
      2.53113319	  -1214.94392942	   -480.00000000	   1225.71683536	    454.12738696	     -0.00000000	      0.00000000	     -0.00000000	      0.00000000	      0.00000000	     -0.00000000	     -0.10000000	     -0.00000000	     -0.10000000	      0.00000000	     -0.00000000	      0.00000000	     54.69317652	   -153.49943172	      4.38297514	      0.11397627	      0.33057767	      9.65922705	    -65.23968412	    123.13965679	      0.00507283	     -0.00396614	     -0.47759880	      0.03919218	     17.47969072	     -1.42314852	      0.04123246	      0.03787939	     -0.02273788	     -0.00412290	     21.75027282	      4.19878630	     -0.00000000	     -0.00000000	      0.00000000	      0.00000000	      0.05000000	      0.10000000	      0.05000000	      0.10000000	      0.05000000	      0.10000000	      0.05000000	      0.10000000
      2.54876297	  -1223.40622661	   -480.00000000	   1233.51489399	    429.91615770	     -0.00000000	     -0.00000000	     -0.00000000	      0.00000000	      0.00000000	      0.00000000	     -0.10000000	     -0.00000000	     -0.10000000	      0.00000000	     -0.00000000	     -0.00000000	     52.17364510	   -131.56056289	      4.38428267	      0.04220354	      0.47103556	      6.17180795	    -63.45880644	     77.80372682	      0.00500492	     -0.00342896	     -0.47703551	      0.02445205	     17.45673367	     -1.11114310	      0.04177669	      0.02362172	     -0.02279912	     -0.00273753	     21.82067533	      3.50463558	     -0.00000000	      0.00000000	      0.00000000	      0.00000000	      0.05000000	      0.10000000	      0.05000000	      0.10000000	      0.05000000	      0.10000000	      0.05000000	      0.10000000
      2.56639276	  -1231.86852379	   -480.00000000	   1240.85859146	    402.88138374	     -0.00000000	     -0.00000000	     -0.00000000	      0.00000000	      0.00000000	      0.00000000	     -0.10000000	     -0.00000000	     -0.10000000	      0.00000000	     -0.00000000	     -0.00000000	     50.07775447	   -105.68380849	      4.38469464	      0.00928712	      0.54510048	      2.16607154	    -62.52812658	     27.12750652	      0.00496103	     -0.00136378	     -0.47674403	      0.00846613	     17.44273251	     -0.42937631	      0.04205831	      0.00818136	     -0.02283218	     -0.00097180	     21.86531616	      1.38154208	     -0.00000000	     -0.00000000	      0.00000000	      0.00000000	      0.05000000	      0.10000000	      0.05000000	      0.10000000	      0.05000000	      0.10000000	      0.05000000	      0.10000000
      2.58402254	  -1240.33082098	   -480.00000000	   1247.71733277	    375.36376764	     -0.00000000	     -0.00000000	     -0.00000000	      0.00000000	      0.00000000	      0.00000000	     -0.10000000	     -0.00000000	     -0.10000000	      0.00000000	     -0.00000000	     -0.00000000	     48.45980505	    -77.69138434	      4.38469939	     -0.00867657	      0.54619180	     -2.04325434	    -62.51445558	    -25.58641707	      0.00496034	      0.00128886	     -0.47673976	     -0.00798423	     17.44251690	      0.40567004	      0.04206243	     -0.00771579	     -0.02283267	      0.00091675	     21.86601036	     -1.30551567	     -0.00000000	     -0.00000000	      0.00000000	      0.00000000	      0.05000000	      0.10000000	      0.05000000	      0.10000000	      0.05000000	      0.10000000	      0.05000000	      0.10000000
      2.61344088	  -1254.45162033	   -480.00000000	   1258.15117832	    336.04408030	     -0.00000000	      0.00000000	     -0.00000000	     -0.00000000	      0.00000000	     -0.00000000	     -0.10000000	     -0.00000000	     -0.10000000	      0.00000000	     -0.00000000	     -0.00000000	     46.85690628	    -32.01362584	      4.38359406	     -0.08254861	      0.38832937	     -8.47367005	    -64.50523936	   -107.55040275	      0.00504729	      0.00399012	     -0.47736568	     -0.03405675	     17.47076970	      1.35974611	      0.04145775	     -0.03290372	     -0.02276274	      0.00368479	     21.77705872	     -4.14788250	     -0.00000000	     -0.00000000	      0.00000000	     -0.00000000	      0.05000000	      0.10000000	      0.05000000	      0.10000000	      0.05000000	      0.10000000	      0.05000000	      0.10000000
      2.64285921	  -1268.57241969	   -480.00000000	   1267.64611274	    312.36594474	     -0.00000000	     -0.00000000	     -0.00000000	      0.00000000	      0.00000000	      0.00000000	     -0.10000000	      0.00000000	     -0.10000000	     -0.00000000	     -0.00000000	     -0.00000000	     46.50577604	      6.75178277	      4.37854229	     -0.28495831	      0.06459654	    -13.23077288	    -68.66114831	   -171.52527726	      0.00514385	      0.00161933	     -0.47870001	     -0.05578152	     17.51136533	      1.23463692	      0.04016603	     -0.05417579	     -0.02263127	      0.00487593	     21.66851653	     -2.40129278	     -0.00000000	     -0.00000000	      0.00000000	      0.00000000	      0.05000000	      0.10000000	      0.05000000	      0.10000000	      0.05000000	      0.10000000	      0.05000000	      0.10000000
      2.68207906	  -1287.39794898	   -480.00000000	   1279.69773675	    306.76018278	     -0.00000000	      0.00000000	     -0.00000000	      0.00000000	      0.00000000	      0.00000000	     -0.10000000	      0.00000000	     -0.10000000	      0.00000000	     -0.00000000	      0.00000000	     47.58353739	     46.16936481	      4.35874881	     -0.75531757	     -0.53750644	    -17.08832671	    -76.55219400	   -225.32945095	      0.00501138	     -0.00967649	     -0.48131820	     -0.07605373	     17.54178065	      0.34464113	      0.03759051	     -0.07605475	     -0.02248011	      0.00176557	     21.73205541	      6.69719602	     -0.00000000	     -0.00000000	      0.00000000	     -0.00000000	      0.05000000	      0.10000000	      0.05000000	      0.10000000	      0.05000000	      0.10000000	      0.05000000	      0.10000000
      2.70170346	  -1296.81766147	   -480.00000000	   1285.77349127	    313.37958796	     -0.00000000	     -0.00000000	     -0.00000000	      0.00000000	      0.00000000	     -0.00000000	     -0.10000000	     -0.00000000	     -0.10000000	     -0.00000000	     -0.00000000	      0.00000000	     48.64843156	     62.03483773	      4.34113845	     -1.04253094	     -0.88550962	    -18.32289712	    -81.13774329	   -240.90202287	      0.00474483	     -0.01766945	     -0.48287764	     -0.08247218	     17.54689910	      0.25199668	      0.03601041	     -0.08475874	     -0.02248314	     -0.00231454	     21.92561955	     13.18920023	     -0.00000000	      0.00000000	      0.00000000	      0.00000000	      0.05000000	      0.10000000	      0.05000000	      0.10000000	      0.05000000	      0.10000000	      0.05000000	      0.10000000
      2.72550038	  -1308.24018337	   -480.00000000	   1293.39601547	    328.47428321	     -0.00000000	     -0.00000000	     -0.00000000	      0.00000000	      0.00000000	      0.00000000	     -0.10000000	     -0.00000000	     -0.10000000	      0.00000000	     -0.00000000	      0.00000000	     50.33254471	     79.21185622	      4.31205416	     -1.40117017	     -1.33576357	    -19.46688099	    -87.01516288	   -251.70017381	      0.00419606	     -0.02863157	     -0.48490195	     -0.08709526	     17.55769332	      0.67857733	      0.03388492	     -0.09355640	     -0.02260043	     -0.00736381	     22.34375968	     22.10705835	     -0.00000000	     -0.00000000	      0.00000000	      0.00000000	      0.05000000	      0.10000000	      0.05000000	      0.10000000	      0.05000000	      0.10000000	      0.05000000	      0.10000000
